<mxfile host="app.diagrams.net" agent="Mozilla/5.0 (Windows NT 10.0; Win64; x64) AppleWebKit/537.36 (KHTML, like Gecko) Chrome/132.0.0.0 Safari/537.36" version="26.0.10">
  <diagram name="페이지-1" id="mh9JgGv4HgEYiWX9yYnb">
    <mxGraphModel dx="472" dy="891" grid="1" gridSize="10" guides="1" tooltips="1" connect="1" arrows="1" fold="1" page="1" pageScale="1" pageWidth="1169" pageHeight="1654" math="0" shadow="0">
      <root>
        <mxCell id="0" />
        <mxCell id="1" parent="0" />
        <mxCell id="4aZlADbejFUpbv1NM3I3-94" value="" style="rounded=0;whiteSpace=wrap;html=1;rotation=-180;strokeColor=none;" vertex="1" parent="1">
          <mxGeometry x="160" y="40" width="300" height="330" as="geometry" />
        </mxCell>
        <mxCell id="4aZlADbejFUpbv1NM3I3-89" value="" style="ellipse;whiteSpace=wrap;html=1;fillColor=#dae8fc;strokeColor=#6c8ebf;" vertex="1" parent="1">
          <mxGeometry x="170" y="214.24" width="150" height="147.5" as="geometry" />
        </mxCell>
        <mxCell id="4aZlADbejFUpbv1NM3I3-88" value="" style="ellipse;whiteSpace=wrap;html=1;fillColor=#dae8fc;strokeColor=#6c8ebf;" vertex="1" parent="1">
          <mxGeometry x="170" y="50" width="150" height="147.5" as="geometry" />
        </mxCell>
        <mxCell id="4aZlADbejFUpbv1NM3I3-61" value="" style="ellipse;whiteSpace=wrap;html=1;fillColor=#dae8fc;strokeColor=#6c8ebf;" vertex="1" parent="1">
          <mxGeometry x="392.5" y="122.5" width="55" height="55" as="geometry" />
        </mxCell>
        <mxCell id="4aZlADbejFUpbv1NM3I3-62" value="" style="ellipse;whiteSpace=wrap;html=1;fillColor=#dae8fc;strokeColor=#6c8ebf;" vertex="1" parent="1">
          <mxGeometry x="392.5" y="242.5" width="55" height="55" as="geometry" />
        </mxCell>
        <mxCell id="4aZlADbejFUpbv1NM3I3-65" value="1" style="ellipse;whiteSpace=wrap;html=1;aspect=fixed;" vertex="1" parent="1">
          <mxGeometry x="399.99999999999994" y="250" width="40" height="40" as="geometry" />
        </mxCell>
        <mxCell id="4aZlADbejFUpbv1NM3I3-66" value="2" style="ellipse;whiteSpace=wrap;html=1;aspect=fixed;" vertex="1" parent="1">
          <mxGeometry x="220" y="152.49999999999997" width="40" height="40" as="geometry" />
        </mxCell>
        <mxCell id="4aZlADbejFUpbv1NM3I3-68" value="4" style="ellipse;whiteSpace=wrap;html=1;aspect=fixed;" vertex="1" parent="1">
          <mxGeometry x="180" y="100" width="40" height="40" as="geometry" />
        </mxCell>
        <mxCell id="4aZlADbejFUpbv1NM3I3-69" value="5" style="ellipse;whiteSpace=wrap;html=1;aspect=fixed;" vertex="1" parent="1">
          <mxGeometry x="270" y="112.5" width="40" height="40" as="geometry" />
        </mxCell>
        <mxCell id="4aZlADbejFUpbv1NM3I3-70" value="-1" style="ellipse;whiteSpace=wrap;html=1;aspect=fixed;" vertex="1" parent="1">
          <mxGeometry x="400" y="130" width="40" height="40" as="geometry" />
        </mxCell>
        <mxCell id="4aZlADbejFUpbv1NM3I3-71" value="-2" style="ellipse;whiteSpace=wrap;html=1;aspect=fixed;" vertex="1" parent="1">
          <mxGeometry x="220" y="220" width="40" height="40" as="geometry" />
        </mxCell>
        <mxCell id="4aZlADbejFUpbv1NM3I3-72" value="-3" style="ellipse;whiteSpace=wrap;html=1;aspect=fixed;" vertex="1" parent="1">
          <mxGeometry x="230" y="312.01" width="40" height="40" as="geometry" />
        </mxCell>
        <mxCell id="4aZlADbejFUpbv1NM3I3-73" value="-4" style="ellipse;whiteSpace=wrap;html=1;aspect=fixed;" vertex="1" parent="1">
          <mxGeometry x="270" y="260" width="40" height="40" as="geometry" />
        </mxCell>
        <mxCell id="4aZlADbejFUpbv1NM3I3-74" value="-5" style="ellipse;whiteSpace=wrap;html=1;aspect=fixed;" vertex="1" parent="1">
          <mxGeometry x="180" y="267.99" width="40" height="40" as="geometry" />
        </mxCell>
        <mxCell id="4aZlADbejFUpbv1NM3I3-75" value="" style="endArrow=classic;html=1;rounded=0;curved=0;" edge="1" source="4aZlADbejFUpbv1NM3I3-74" target="4aZlADbejFUpbv1NM3I3-68" parent="1">
          <mxGeometry width="50" height="50" relative="1" as="geometry">
            <mxPoint x="690" y="450" as="sourcePoint" />
            <mxPoint x="130" y="230" as="targetPoint" />
          </mxGeometry>
        </mxCell>
        <mxCell id="4aZlADbejFUpbv1NM3I3-76" value="" style="endArrow=classic;html=1;rounded=0;strokeColor=default;curved=0;" edge="1" source="4aZlADbejFUpbv1NM3I3-73" target="4aZlADbejFUpbv1NM3I3-69" parent="1">
          <mxGeometry width="50" height="50" relative="1" as="geometry">
            <mxPoint x="690" y="450" as="sourcePoint" />
            <mxPoint x="740" y="400" as="targetPoint" />
          </mxGeometry>
        </mxCell>
        <mxCell id="4aZlADbejFUpbv1NM3I3-77" value="" style="endArrow=classic;html=1;rounded=0;curved=1;" edge="1" source="4aZlADbejFUpbv1NM3I3-69" target="4aZlADbejFUpbv1NM3I3-66" parent="1">
          <mxGeometry width="50" height="50" relative="1" as="geometry">
            <mxPoint x="690" y="450" as="sourcePoint" />
            <mxPoint x="740" y="400" as="targetPoint" />
          </mxGeometry>
        </mxCell>
        <mxCell id="4aZlADbejFUpbv1NM3I3-78" value="" style="endArrow=classic;html=1;rounded=0;curved=0;" edge="1" source="4aZlADbejFUpbv1NM3I3-71" target="4aZlADbejFUpbv1NM3I3-74" parent="1">
          <mxGeometry width="50" height="50" relative="1" as="geometry">
            <mxPoint x="690" y="392.01" as="sourcePoint" />
            <mxPoint x="740" y="342.01" as="targetPoint" />
          </mxGeometry>
        </mxCell>
        <mxCell id="4aZlADbejFUpbv1NM3I3-79" value="" style="endArrow=classic;html=1;rounded=0;curved=0;" edge="1" source="4aZlADbejFUpbv1NM3I3-74" target="4aZlADbejFUpbv1NM3I3-72" parent="1">
          <mxGeometry width="50" height="50" relative="1" as="geometry">
            <mxPoint x="690" y="392.01" as="sourcePoint" />
            <mxPoint x="740" y="342.01" as="targetPoint" />
          </mxGeometry>
        </mxCell>
        <mxCell id="4aZlADbejFUpbv1NM3I3-80" value="" style="endArrow=classic;html=1;rounded=0;curved=0;" edge="1" source="4aZlADbejFUpbv1NM3I3-67" target="4aZlADbejFUpbv1NM3I3-69" parent="1">
          <mxGeometry width="50" height="50" relative="1" as="geometry">
            <mxPoint x="690" y="450" as="sourcePoint" />
            <mxPoint x="740" y="400" as="targetPoint" />
          </mxGeometry>
        </mxCell>
        <mxCell id="4aZlADbejFUpbv1NM3I3-81" value="" style="endArrow=classic;html=1;rounded=0;" edge="1" source="4aZlADbejFUpbv1NM3I3-67" target="4aZlADbejFUpbv1NM3I3-70" parent="1">
          <mxGeometry width="50" height="50" relative="1" as="geometry">
            <mxPoint x="690" y="450" as="sourcePoint" />
            <mxPoint x="740" y="400" as="targetPoint" />
          </mxGeometry>
        </mxCell>
        <mxCell id="4aZlADbejFUpbv1NM3I3-82" value="" style="endArrow=classic;html=1;rounded=0;" edge="1" source="4aZlADbejFUpbv1NM3I3-65" target="4aZlADbejFUpbv1NM3I3-72" parent="1">
          <mxGeometry width="50" height="50" relative="1" as="geometry">
            <mxPoint x="690" y="450" as="sourcePoint" />
            <mxPoint x="740" y="400" as="targetPoint" />
          </mxGeometry>
        </mxCell>
        <mxCell id="4aZlADbejFUpbv1NM3I3-83" value="" style="endArrow=classic;html=1;rounded=0;" edge="1" source="4aZlADbejFUpbv1NM3I3-73" target="4aZlADbejFUpbv1NM3I3-71" parent="1">
          <mxGeometry width="50" height="50" relative="1" as="geometry">
            <mxPoint x="690" y="372.01" as="sourcePoint" />
            <mxPoint x="740" y="322.01" as="targetPoint" />
          </mxGeometry>
        </mxCell>
        <mxCell id="4aZlADbejFUpbv1NM3I3-84" value="" style="endArrow=classic;html=1;rounded=0;curved=0;" edge="1" source="4aZlADbejFUpbv1NM3I3-66" target="4aZlADbejFUpbv1NM3I3-68" parent="1">
          <mxGeometry width="50" height="50" relative="1" as="geometry">
            <mxPoint x="690" y="450" as="sourcePoint" />
            <mxPoint x="740" y="400" as="targetPoint" />
          </mxGeometry>
        </mxCell>
        <mxCell id="4aZlADbejFUpbv1NM3I3-85" value="" style="endArrow=classic;html=1;rounded=0;" edge="1" source="4aZlADbejFUpbv1NM3I3-68" target="4aZlADbejFUpbv1NM3I3-67" parent="1">
          <mxGeometry width="50" height="50" relative="1" as="geometry">
            <mxPoint x="690" y="450" as="sourcePoint" />
            <mxPoint x="740" y="400" as="targetPoint" />
          </mxGeometry>
        </mxCell>
        <mxCell id="4aZlADbejFUpbv1NM3I3-86" value="" style="endArrow=classic;html=1;rounded=0;" edge="1" source="4aZlADbejFUpbv1NM3I3-72" target="4aZlADbejFUpbv1NM3I3-73" parent="1">
          <mxGeometry width="50" height="50" relative="1" as="geometry">
            <mxPoint x="690" y="372.01" as="sourcePoint" />
            <mxPoint x="740" y="322.01" as="targetPoint" />
          </mxGeometry>
        </mxCell>
        <mxCell id="4aZlADbejFUpbv1NM3I3-87" value="" style="endArrow=classic;html=1;rounded=0;" edge="1" parent="1" source="4aZlADbejFUpbv1NM3I3-68" target="4aZlADbejFUpbv1NM3I3-67">
          <mxGeometry width="50" height="50" relative="1" as="geometry">
            <mxPoint x="270" y="204" as="sourcePoint" />
            <mxPoint x="550" y="256" as="targetPoint" />
          </mxGeometry>
        </mxCell>
        <mxCell id="4aZlADbejFUpbv1NM3I3-67" value="3" style="ellipse;whiteSpace=wrap;html=1;aspect=fixed;" vertex="1" parent="1">
          <mxGeometry x="230" y="60" width="40" height="40" as="geometry" />
        </mxCell>
        <mxCell id="4aZlADbejFUpbv1NM3I3-90" value="A" style="text;html=1;align=center;verticalAlign=middle;whiteSpace=wrap;rounded=0;" vertex="1" parent="1">
          <mxGeometry x="160" y="60" width="30" height="30" as="geometry" />
        </mxCell>
        <mxCell id="4aZlADbejFUpbv1NM3I3-91" value="B" style="text;html=1;align=center;verticalAlign=middle;whiteSpace=wrap;rounded=0;" vertex="1" parent="1">
          <mxGeometry x="160" y="230" width="30" height="30" as="geometry" />
        </mxCell>
        <mxCell id="4aZlADbejFUpbv1NM3I3-92" value="C" style="text;html=1;align=center;verticalAlign=middle;whiteSpace=wrap;rounded=0;" vertex="1" parent="1">
          <mxGeometry x="370" y="105" width="60" height="30" as="geometry" />
        </mxCell>
        <mxCell id="4aZlADbejFUpbv1NM3I3-93" value="D" style="text;html=1;align=center;verticalAlign=middle;whiteSpace=wrap;rounded=0;" vertex="1" parent="1">
          <mxGeometry x="370" y="225" width="60" height="30" as="geometry" />
        </mxCell>
        <mxCell id="4aZlADbejFUpbv1NM3I3-26" value="" style="rounded=0;whiteSpace=wrap;html=1;strokeColor=none;" vertex="1" parent="1">
          <mxGeometry x="30" y="530" width="300" height="300" as="geometry" />
        </mxCell>
        <mxCell id="JAG4G-aaRSjiAhPwFopi-58" value="" style="rounded=0;whiteSpace=wrap;html=1;strokeColor=none;" parent="1" vertex="1">
          <mxGeometry x="820" y="750" width="280" height="170" as="geometry" />
        </mxCell>
        <mxCell id="JAG4G-aaRSjiAhPwFopi-78" value="" style="rounded=1;whiteSpace=wrap;html=1;fillColor=#fff2cc;strokeColor=#d6b656;" parent="1" vertex="1">
          <mxGeometry x="830" y="840" width="260" height="70" as="geometry" />
        </mxCell>
        <mxCell id="JAG4G-aaRSjiAhPwFopi-77" value="" style="rounded=1;whiteSpace=wrap;html=1;fillColor=#dae8fc;strokeColor=#6c8ebf;" parent="1" vertex="1">
          <mxGeometry x="830" y="760" width="260" height="70" as="geometry" />
        </mxCell>
        <mxCell id="JAG4G-aaRSjiAhPwFopi-21" value="" style="rounded=0;whiteSpace=wrap;html=1;strokeColor=none;" parent="1" vertex="1">
          <mxGeometry x="830" y="570" width="260" height="150" as="geometry" />
        </mxCell>
        <mxCell id="0GCvr4JyTRtGYyD9AsL9-36" value="" style="rounded=0;whiteSpace=wrap;html=1;strokeColor=none;" parent="1" vertex="1">
          <mxGeometry x="810" y="980" width="270" height="150" as="geometry" />
        </mxCell>
        <mxCell id="0GCvr4JyTRtGYyD9AsL9-61" value="" style="rounded=1;whiteSpace=wrap;html=1;fillColor=#dae8fc;strokeColor=#6c8ebf;" parent="1" vertex="1">
          <mxGeometry x="820" y="990" width="130" height="130" as="geometry" />
        </mxCell>
        <mxCell id="0GCvr4JyTRtGYyD9AsL9-39" value="" style="rounded=1;whiteSpace=wrap;html=1;" parent="1" vertex="1">
          <mxGeometry x="1030" y="1000" width="40" height="120" as="geometry" />
        </mxCell>
        <mxCell id="0GCvr4JyTRtGYyD9AsL9-40" value="stack" style="text;html=1;align=center;verticalAlign=middle;whiteSpace=wrap;rounded=0;fillColor=default;" parent="1" vertex="1">
          <mxGeometry x="1020" y="990" width="60" height="20" as="geometry" />
        </mxCell>
        <mxCell id="0GCvr4JyTRtGYyD9AsL9-60" value="" style="ellipse;whiteSpace=wrap;html=1;fillColor=#dae8fc;strokeColor=#6c8ebf;" parent="1" vertex="1">
          <mxGeometry x="980" y="990" width="50" height="130" as="geometry" />
        </mxCell>
        <mxCell id="0GCvr4JyTRtGYyD9AsL9-15" value="a" style="ellipse;whiteSpace=wrap;html=1;aspect=fixed;" parent="1" vertex="1">
          <mxGeometry x="830" y="1000" width="30" height="30" as="geometry" />
        </mxCell>
        <mxCell id="0GCvr4JyTRtGYyD9AsL9-16" value="b" style="ellipse;whiteSpace=wrap;html=1;aspect=fixed;" parent="1" vertex="1">
          <mxGeometry x="910" y="1000" width="30" height="30" as="geometry" />
        </mxCell>
        <mxCell id="0GCvr4JyTRtGYyD9AsL9-17" value="d" style="ellipse;whiteSpace=wrap;html=1;aspect=fixed;" parent="1" vertex="1">
          <mxGeometry x="830" y="1080" width="30" height="30" as="geometry" />
        </mxCell>
        <mxCell id="0GCvr4JyTRtGYyD9AsL9-18" value="c" style="ellipse;whiteSpace=wrap;html=1;aspect=fixed;" parent="1" vertex="1">
          <mxGeometry x="990" y="1000" width="30" height="30" as="geometry" />
        </mxCell>
        <mxCell id="0GCvr4JyTRtGYyD9AsL9-19" value="e" style="ellipse;whiteSpace=wrap;html=1;aspect=fixed;" parent="1" vertex="1">
          <mxGeometry x="910" y="1080" width="30" height="30" as="geometry" />
        </mxCell>
        <mxCell id="0GCvr4JyTRtGYyD9AsL9-20" value="f" style="ellipse;whiteSpace=wrap;html=1;aspect=fixed;" parent="1" vertex="1">
          <mxGeometry x="990" y="1080" width="30" height="30" as="geometry" />
        </mxCell>
        <mxCell id="0GCvr4JyTRtGYyD9AsL9-24" value="" style="endArrow=classic;html=1;rounded=0;" parent="1" source="0GCvr4JyTRtGYyD9AsL9-16" target="0GCvr4JyTRtGYyD9AsL9-20" edge="1">
          <mxGeometry width="50" height="50" relative="1" as="geometry">
            <mxPoint x="930" y="1095" as="sourcePoint" />
            <mxPoint x="950" y="1070" as="targetPoint" />
          </mxGeometry>
        </mxCell>
        <mxCell id="0GCvr4JyTRtGYyD9AsL9-28" value="" style="endArrow=classic;html=1;rounded=0;" parent="1" source="0GCvr4JyTRtGYyD9AsL9-16" target="0GCvr4JyTRtGYyD9AsL9-15" edge="1">
          <mxGeometry width="50" height="50" relative="1" as="geometry">
            <mxPoint x="910" y="1050" as="sourcePoint" />
            <mxPoint x="860" y="1050" as="targetPoint" />
          </mxGeometry>
        </mxCell>
        <mxCell id="0GCvr4JyTRtGYyD9AsL9-29" value="" style="endArrow=classic;html=1;rounded=0;" parent="1" source="0GCvr4JyTRtGYyD9AsL9-17" target="0GCvr4JyTRtGYyD9AsL9-19" edge="1">
          <mxGeometry width="50" height="50" relative="1" as="geometry">
            <mxPoint x="900" y="1120" as="sourcePoint" />
            <mxPoint x="950" y="1070" as="targetPoint" />
          </mxGeometry>
        </mxCell>
        <mxCell id="0GCvr4JyTRtGYyD9AsL9-30" value="" style="endArrow=classic;html=1;rounded=0;" parent="1" source="0GCvr4JyTRtGYyD9AsL9-20" target="0GCvr4JyTRtGYyD9AsL9-18" edge="1">
          <mxGeometry width="50" height="50" relative="1" as="geometry">
            <mxPoint x="900" y="1120" as="sourcePoint" />
            <mxPoint x="1080" y="1060" as="targetPoint" />
          </mxGeometry>
        </mxCell>
        <mxCell id="0GCvr4JyTRtGYyD9AsL9-31" value="" style="endArrow=classic;html=1;rounded=0;" parent="1" source="0GCvr4JyTRtGYyD9AsL9-17" target="0GCvr4JyTRtGYyD9AsL9-16" edge="1">
          <mxGeometry width="50" height="50" relative="1" as="geometry">
            <mxPoint x="970" y="1160" as="sourcePoint" />
            <mxPoint x="950" y="1070" as="targetPoint" />
          </mxGeometry>
        </mxCell>
        <mxCell id="0GCvr4JyTRtGYyD9AsL9-32" value="" style="endArrow=classic;html=1;rounded=0;" parent="1" source="0GCvr4JyTRtGYyD9AsL9-19" target="0GCvr4JyTRtGYyD9AsL9-20" edge="1">
          <mxGeometry width="50" height="50" relative="1" as="geometry">
            <mxPoint x="980" y="1120" as="sourcePoint" />
            <mxPoint x="1030" y="1070" as="targetPoint" />
          </mxGeometry>
        </mxCell>
        <mxCell id="0GCvr4JyTRtGYyD9AsL9-33" value="" style="endArrow=classic;html=1;rounded=0;" parent="1" source="0GCvr4JyTRtGYyD9AsL9-16" target="0GCvr4JyTRtGYyD9AsL9-19" edge="1">
          <mxGeometry width="50" height="50" relative="1" as="geometry">
            <mxPoint x="950" y="1140" as="sourcePoint" />
            <mxPoint x="993.416815201579" y="1104.53046850503" as="targetPoint" />
          </mxGeometry>
        </mxCell>
        <mxCell id="0GCvr4JyTRtGYyD9AsL9-34" value="" style="endArrow=classic;html=1;rounded=0;" parent="1" source="0GCvr4JyTRtGYyD9AsL9-15" target="0GCvr4JyTRtGYyD9AsL9-17" edge="1">
          <mxGeometry width="50" height="50" relative="1" as="geometry">
            <mxPoint x="1085" y="1080" as="sourcePoint" />
            <mxPoint x="950" y="1070" as="targetPoint" />
          </mxGeometry>
        </mxCell>
        <mxCell id="0GCvr4JyTRtGYyD9AsL9-35" value="" style="curved=1;endArrow=classic;html=1;rounded=0;" parent="1" source="0GCvr4JyTRtGYyD9AsL9-18" target="0GCvr4JyTRtGYyD9AsL9-20" edge="1">
          <mxGeometry width="50" height="50" relative="1" as="geometry">
            <mxPoint x="900" y="1120" as="sourcePoint" />
            <mxPoint x="950" y="1070" as="targetPoint" />
            <Array as="points">
              <mxPoint x="990" y="1040" />
              <mxPoint x="990" y="1070" />
            </Array>
          </mxGeometry>
        </mxCell>
        <mxCell id="0GCvr4JyTRtGYyD9AsL9-38" value="" style="curved=1;endArrow=classic;html=1;rounded=0;" parent="1" source="0GCvr4JyTRtGYyD9AsL9-19" target="0GCvr4JyTRtGYyD9AsL9-16" edge="1">
          <mxGeometry width="50" height="50" relative="1" as="geometry">
            <mxPoint x="940" y="1030" as="sourcePoint" />
            <mxPoint x="940" y="1084" as="targetPoint" />
            <Array as="points">
              <mxPoint x="940" y="1072" />
              <mxPoint x="940" y="1040" />
            </Array>
          </mxGeometry>
        </mxCell>
        <mxCell id="0GCvr4JyTRtGYyD9AsL9-41" value="1" style="ellipse;whiteSpace=wrap;html=1;aspect=fixed;fillColor=#f8cecc;strokeColor=#b85450;fontSize=8;" parent="1" vertex="1">
          <mxGeometry x="850" y="1020" width="10" height="10" as="geometry" />
        </mxCell>
        <mxCell id="0GCvr4JyTRtGYyD9AsL9-47" value="2" style="ellipse;whiteSpace=wrap;html=1;aspect=fixed;fillColor=#f8cecc;strokeColor=#b85450;fontSize=8;" parent="1" vertex="1">
          <mxGeometry x="850" y="1100" width="10" height="10" as="geometry" />
        </mxCell>
        <mxCell id="0GCvr4JyTRtGYyD9AsL9-49" value="3" style="ellipse;whiteSpace=wrap;html=1;aspect=fixed;fillColor=#f8cecc;strokeColor=#b85450;fontSize=8;" parent="1" vertex="1">
          <mxGeometry x="930" y="1020" width="10" height="10" as="geometry" />
        </mxCell>
        <mxCell id="0GCvr4JyTRtGYyD9AsL9-52" value="4" style="ellipse;whiteSpace=wrap;html=1;aspect=fixed;fillColor=#f8cecc;strokeColor=#b85450;fontSize=8;" parent="1" vertex="1">
          <mxGeometry x="930" y="1100" width="10" height="10" as="geometry" />
        </mxCell>
        <mxCell id="0GCvr4JyTRtGYyD9AsL9-54" value="5" style="ellipse;whiteSpace=wrap;html=1;aspect=fixed;fillColor=#f8cecc;strokeColor=#b85450;fontSize=8;" parent="1" vertex="1">
          <mxGeometry x="1010" y="1100" width="10" height="10" as="geometry" />
        </mxCell>
        <mxCell id="0GCvr4JyTRtGYyD9AsL9-56" value="6" style="ellipse;whiteSpace=wrap;html=1;aspect=fixed;fillColor=#f8cecc;strokeColor=#b85450;fontSize=8;" parent="1" vertex="1">
          <mxGeometry x="1010" y="1020" width="10" height="10" as="geometry" />
        </mxCell>
        <mxCell id="JAG4G-aaRSjiAhPwFopi-11" value="A" style="ellipse;whiteSpace=wrap;html=1;aspect=fixed;" parent="1" vertex="1">
          <mxGeometry x="840" y="600" width="30" height="30" as="geometry" />
        </mxCell>
        <mxCell id="JAG4G-aaRSjiAhPwFopi-12" value="￢A" style="ellipse;whiteSpace=wrap;html=1;aspect=fixed;" parent="1" vertex="1">
          <mxGeometry x="840" y="660" width="30" height="30" as="geometry" />
        </mxCell>
        <mxCell id="JAG4G-aaRSjiAhPwFopi-13" value="B" style="ellipse;whiteSpace=wrap;html=1;aspect=fixed;" parent="1" vertex="1">
          <mxGeometry x="910" y="600" width="30" height="30" as="geometry" />
        </mxCell>
        <mxCell id="JAG4G-aaRSjiAhPwFopi-14" value="￢B" style="ellipse;whiteSpace=wrap;html=1;aspect=fixed;" parent="1" vertex="1">
          <mxGeometry x="910" y="660" width="30" height="30" as="geometry" />
        </mxCell>
        <mxCell id="JAG4G-aaRSjiAhPwFopi-15" value="C" style="ellipse;whiteSpace=wrap;html=1;aspect=fixed;" parent="1" vertex="1">
          <mxGeometry x="980" y="600" width="30" height="30" as="geometry" />
        </mxCell>
        <mxCell id="JAG4G-aaRSjiAhPwFopi-16" value="￢C" style="ellipse;whiteSpace=wrap;html=1;aspect=fixed;" parent="1" vertex="1">
          <mxGeometry x="980" y="660" width="30" height="30" as="geometry" />
        </mxCell>
        <mxCell id="JAG4G-aaRSjiAhPwFopi-17" value="D" style="ellipse;whiteSpace=wrap;html=1;aspect=fixed;" parent="1" vertex="1">
          <mxGeometry x="1050" y="600" width="30" height="30" as="geometry" />
        </mxCell>
        <mxCell id="JAG4G-aaRSjiAhPwFopi-18" value="￢D" style="ellipse;whiteSpace=wrap;html=1;aspect=fixed;" parent="1" vertex="1">
          <mxGeometry x="1050" y="660" width="30" height="30" as="geometry" />
        </mxCell>
        <mxCell id="JAG4G-aaRSjiAhPwFopi-24" value="" style="curved=1;endArrow=classic;html=1;rounded=0;" parent="1" source="JAG4G-aaRSjiAhPwFopi-11" target="JAG4G-aaRSjiAhPwFopi-15" edge="1">
          <mxGeometry width="50" height="50" relative="1" as="geometry">
            <mxPoint x="920" y="720" as="sourcePoint" />
            <mxPoint x="970" y="670" as="targetPoint" />
            <Array as="points">
              <mxPoint x="890" y="580" />
              <mxPoint x="960" y="580" />
            </Array>
          </mxGeometry>
        </mxCell>
        <mxCell id="JAG4G-aaRSjiAhPwFopi-25" value="" style="curved=1;endArrow=classic;html=1;rounded=0;" parent="1" source="JAG4G-aaRSjiAhPwFopi-16" target="JAG4G-aaRSjiAhPwFopi-12" edge="1">
          <mxGeometry width="50" height="50" relative="1" as="geometry">
            <mxPoint x="870.39" y="744" as="sourcePoint" />
            <mxPoint x="988.39" y="744" as="targetPoint" />
            <Array as="points">
              <mxPoint x="960" y="710" />
              <mxPoint x="890" y="710" />
            </Array>
          </mxGeometry>
        </mxCell>
        <mxCell id="JAG4G-aaRSjiAhPwFopi-26" value="" style="endArrow=classic;html=1;rounded=0;" parent="1" source="JAG4G-aaRSjiAhPwFopi-13" target="JAG4G-aaRSjiAhPwFopi-16" edge="1">
          <mxGeometry width="50" height="50" relative="1" as="geometry">
            <mxPoint x="950" y="670" as="sourcePoint" />
            <mxPoint x="1000" y="620" as="targetPoint" />
          </mxGeometry>
        </mxCell>
        <mxCell id="JAG4G-aaRSjiAhPwFopi-27" value="" style="endArrow=classic;html=1;rounded=0;" parent="1" source="JAG4G-aaRSjiAhPwFopi-15" target="JAG4G-aaRSjiAhPwFopi-14" edge="1">
          <mxGeometry width="50" height="50" relative="1" as="geometry">
            <mxPoint x="950" y="670" as="sourcePoint" />
            <mxPoint x="1000" y="620" as="targetPoint" />
          </mxGeometry>
        </mxCell>
        <mxCell id="JAG4G-aaRSjiAhPwFopi-31" value="" style="curved=1;endArrow=classic;html=1;rounded=0;" parent="1" source="JAG4G-aaRSjiAhPwFopi-17" target="JAG4G-aaRSjiAhPwFopi-11" edge="1">
          <mxGeometry width="50" height="50" relative="1" as="geometry">
            <mxPoint x="950" y="670" as="sourcePoint" />
            <mxPoint x="1000" y="620" as="targetPoint" />
            <Array as="points">
              <mxPoint x="1020" y="580" />
              <mxPoint x="920" y="580" />
            </Array>
          </mxGeometry>
        </mxCell>
        <mxCell id="JAG4G-aaRSjiAhPwFopi-32" value="" style="curved=1;endArrow=classic;html=1;rounded=0;" parent="1" source="JAG4G-aaRSjiAhPwFopi-12" target="JAG4G-aaRSjiAhPwFopi-18" edge="1">
          <mxGeometry width="50" height="50" relative="1" as="geometry">
            <mxPoint x="1064.78" y="776" as="sourcePoint" />
            <mxPoint x="879.78" y="778" as="targetPoint" />
            <Array as="points">
              <mxPoint x="920" y="710" />
              <mxPoint x="1030" y="710" />
            </Array>
          </mxGeometry>
        </mxCell>
        <mxCell id="JAG4G-aaRSjiAhPwFopi-55" value="" style="endArrow=classic;html=1;rounded=0;" parent="1" source="JAG4G-aaRSjiAhPwFopi-18" target="JAG4G-aaRSjiAhPwFopi-13" edge="1">
          <mxGeometry width="50" height="50" relative="1" as="geometry">
            <mxPoint x="930" y="720" as="sourcePoint" />
            <mxPoint x="980" y="670" as="targetPoint" />
          </mxGeometry>
        </mxCell>
        <mxCell id="JAG4G-aaRSjiAhPwFopi-56" value="" style="endArrow=classic;html=1;rounded=0;" parent="1" source="JAG4G-aaRSjiAhPwFopi-14" target="JAG4G-aaRSjiAhPwFopi-17" edge="1">
          <mxGeometry width="50" height="50" relative="1" as="geometry">
            <mxPoint x="930" y="720" as="sourcePoint" />
            <mxPoint x="980" y="670" as="targetPoint" />
          </mxGeometry>
        </mxCell>
        <mxCell id="JAG4G-aaRSjiAhPwFopi-59" value="A" style="ellipse;whiteSpace=wrap;html=1;aspect=fixed;" parent="1" vertex="1">
          <mxGeometry x="840" y="790" width="30" height="30" as="geometry" />
        </mxCell>
        <mxCell id="JAG4G-aaRSjiAhPwFopi-60" value="￢A" style="ellipse;whiteSpace=wrap;html=1;aspect=fixed;" parent="1" vertex="1">
          <mxGeometry x="840" y="850" width="30" height="30" as="geometry" />
        </mxCell>
        <mxCell id="JAG4G-aaRSjiAhPwFopi-61" value="B" style="ellipse;whiteSpace=wrap;html=1;aspect=fixed;" parent="1" vertex="1">
          <mxGeometry x="980" y="850" width="30" height="30" as="geometry" />
        </mxCell>
        <mxCell id="JAG4G-aaRSjiAhPwFopi-62" value="￢B" style="ellipse;whiteSpace=wrap;html=1;aspect=fixed;" parent="1" vertex="1">
          <mxGeometry x="980" y="790" width="30" height="30" as="geometry" />
        </mxCell>
        <mxCell id="JAG4G-aaRSjiAhPwFopi-63" value="C" style="ellipse;whiteSpace=wrap;html=1;aspect=fixed;" parent="1" vertex="1">
          <mxGeometry x="910" y="790" width="30" height="30" as="geometry" />
        </mxCell>
        <mxCell id="JAG4G-aaRSjiAhPwFopi-64" value="￢C" style="ellipse;whiteSpace=wrap;html=1;aspect=fixed;" parent="1" vertex="1">
          <mxGeometry x="910" y="850" width="30" height="30" as="geometry" />
        </mxCell>
        <mxCell id="JAG4G-aaRSjiAhPwFopi-65" value="D" style="ellipse;whiteSpace=wrap;html=1;aspect=fixed;" parent="1" vertex="1">
          <mxGeometry x="1050" y="790" width="30" height="30" as="geometry" />
        </mxCell>
        <mxCell id="JAG4G-aaRSjiAhPwFopi-66" value="￢D" style="ellipse;whiteSpace=wrap;html=1;aspect=fixed;" parent="1" vertex="1">
          <mxGeometry x="1050" y="850" width="30" height="30" as="geometry" />
        </mxCell>
        <mxCell id="JAG4G-aaRSjiAhPwFopi-69" value="" style="endArrow=classic;html=1;rounded=0;" parent="1" source="JAG4G-aaRSjiAhPwFopi-61" target="JAG4G-aaRSjiAhPwFopi-64" edge="1">
          <mxGeometry width="50" height="50" relative="1" as="geometry">
            <mxPoint x="950" y="860" as="sourcePoint" />
            <mxPoint x="1000" y="810" as="targetPoint" />
          </mxGeometry>
        </mxCell>
        <mxCell id="JAG4G-aaRSjiAhPwFopi-70" value="" style="endArrow=classic;html=1;rounded=0;" parent="1" source="JAG4G-aaRSjiAhPwFopi-63" target="JAG4G-aaRSjiAhPwFopi-62" edge="1">
          <mxGeometry width="50" height="50" relative="1" as="geometry">
            <mxPoint x="950" y="860" as="sourcePoint" />
            <mxPoint x="1000" y="810" as="targetPoint" />
          </mxGeometry>
        </mxCell>
        <mxCell id="JAG4G-aaRSjiAhPwFopi-71" value="" style="curved=1;endArrow=classic;html=1;rounded=0;" parent="1" source="JAG4G-aaRSjiAhPwFopi-65" target="JAG4G-aaRSjiAhPwFopi-59" edge="1">
          <mxGeometry width="50" height="50" relative="1" as="geometry">
            <mxPoint x="950" y="860" as="sourcePoint" />
            <mxPoint x="1000" y="810" as="targetPoint" />
            <Array as="points">
              <mxPoint x="1010" y="770" />
              <mxPoint x="910" y="770" />
            </Array>
          </mxGeometry>
        </mxCell>
        <mxCell id="JAG4G-aaRSjiAhPwFopi-72" value="" style="curved=1;endArrow=classic;html=1;rounded=0;" parent="1" source="JAG4G-aaRSjiAhPwFopi-60" target="JAG4G-aaRSjiAhPwFopi-66" edge="1">
          <mxGeometry width="50" height="50" relative="1" as="geometry">
            <mxPoint x="1064.78" y="966" as="sourcePoint" />
            <mxPoint x="879.78" y="968" as="targetPoint" />
            <Array as="points">
              <mxPoint x="910" y="900" />
              <mxPoint x="1010" y="900" />
            </Array>
          </mxGeometry>
        </mxCell>
        <mxCell id="JAG4G-aaRSjiAhPwFopi-73" value="" style="endArrow=classic;html=1;rounded=0;" parent="1" source="JAG4G-aaRSjiAhPwFopi-66" target="JAG4G-aaRSjiAhPwFopi-61" edge="1">
          <mxGeometry width="50" height="50" relative="1" as="geometry">
            <mxPoint x="930" y="910" as="sourcePoint" />
            <mxPoint x="980" y="860" as="targetPoint" />
          </mxGeometry>
        </mxCell>
        <mxCell id="JAG4G-aaRSjiAhPwFopi-74" value="" style="endArrow=classic;html=1;rounded=0;" parent="1" source="JAG4G-aaRSjiAhPwFopi-62" target="JAG4G-aaRSjiAhPwFopi-65" edge="1">
          <mxGeometry width="50" height="50" relative="1" as="geometry">
            <mxPoint x="930" y="910" as="sourcePoint" />
            <mxPoint x="980" y="860" as="targetPoint" />
          </mxGeometry>
        </mxCell>
        <mxCell id="JAG4G-aaRSjiAhPwFopi-75" value="" style="endArrow=classic;html=1;rounded=0;" parent="1" source="JAG4G-aaRSjiAhPwFopi-64" target="JAG4G-aaRSjiAhPwFopi-60" edge="1">
          <mxGeometry width="50" height="50" relative="1" as="geometry">
            <mxPoint x="920" y="760" as="sourcePoint" />
            <mxPoint x="970" y="710" as="targetPoint" />
          </mxGeometry>
        </mxCell>
        <mxCell id="JAG4G-aaRSjiAhPwFopi-76" value="" style="endArrow=classic;html=1;rounded=0;" parent="1" source="JAG4G-aaRSjiAhPwFopi-59" target="JAG4G-aaRSjiAhPwFopi-63" edge="1">
          <mxGeometry width="50" height="50" relative="1" as="geometry">
            <mxPoint x="920" y="760" as="sourcePoint" />
            <mxPoint x="970" y="710" as="targetPoint" />
          </mxGeometry>
        </mxCell>
        <mxCell id="4aZlADbejFUpbv1NM3I3-1" value="1" style="ellipse;whiteSpace=wrap;html=1;aspect=fixed;" vertex="1" parent="1">
          <mxGeometry x="40" y="620" width="40" height="40" as="geometry" />
        </mxCell>
        <mxCell id="4aZlADbejFUpbv1NM3I3-2" value="2" style="ellipse;whiteSpace=wrap;html=1;aspect=fixed;" vertex="1" parent="1">
          <mxGeometry x="80" y="560" width="40" height="40" as="geometry" />
        </mxCell>
        <mxCell id="4aZlADbejFUpbv1NM3I3-3" value="3" style="ellipse;whiteSpace=wrap;html=1;aspect=fixed;" vertex="1" parent="1">
          <mxGeometry x="160" y="540" width="40" height="40" as="geometry" />
        </mxCell>
        <mxCell id="4aZlADbejFUpbv1NM3I3-4" value="4" style="ellipse;whiteSpace=wrap;html=1;aspect=fixed;" vertex="1" parent="1">
          <mxGeometry x="240" y="560" width="40" height="40" as="geometry" />
        </mxCell>
        <mxCell id="4aZlADbejFUpbv1NM3I3-5" value="5" style="ellipse;whiteSpace=wrap;html=1;aspect=fixed;" vertex="1" parent="1">
          <mxGeometry x="280" y="620" width="40" height="40" as="geometry" />
        </mxCell>
        <mxCell id="4aZlADbejFUpbv1NM3I3-7" value="-1" style="ellipse;whiteSpace=wrap;html=1;aspect=fixed;" vertex="1" parent="1">
          <mxGeometry x="40" y="700" width="40" height="40" as="geometry" />
        </mxCell>
        <mxCell id="4aZlADbejFUpbv1NM3I3-8" value="-2" style="ellipse;whiteSpace=wrap;html=1;aspect=fixed;" vertex="1" parent="1">
          <mxGeometry x="80" y="760" width="40" height="40" as="geometry" />
        </mxCell>
        <mxCell id="4aZlADbejFUpbv1NM3I3-9" value="-3" style="ellipse;whiteSpace=wrap;html=1;aspect=fixed;" vertex="1" parent="1">
          <mxGeometry x="160" y="780" width="40" height="40" as="geometry" />
        </mxCell>
        <mxCell id="4aZlADbejFUpbv1NM3I3-10" value="-4" style="ellipse;whiteSpace=wrap;html=1;aspect=fixed;" vertex="1" parent="1">
          <mxGeometry x="240" y="760" width="40" height="40" as="geometry" />
        </mxCell>
        <mxCell id="4aZlADbejFUpbv1NM3I3-11" value="-5" style="ellipse;whiteSpace=wrap;html=1;aspect=fixed;" vertex="1" parent="1">
          <mxGeometry x="280" y="700" width="40" height="40" as="geometry" />
        </mxCell>
        <mxCell id="4aZlADbejFUpbv1NM3I3-12" value="" style="endArrow=classic;html=1;rounded=0;curved=1;" edge="1" parent="1" source="4aZlADbejFUpbv1NM3I3-11" target="4aZlADbejFUpbv1NM3I3-4">
          <mxGeometry width="50" height="50" relative="1" as="geometry">
            <mxPoint x="370" y="620" as="sourcePoint" />
            <mxPoint x="230" y="860" as="targetPoint" />
            <Array as="points">
              <mxPoint x="260" y="660" />
            </Array>
          </mxGeometry>
        </mxCell>
        <mxCell id="4aZlADbejFUpbv1NM3I3-13" value="" style="endArrow=classic;html=1;rounded=0;strokeColor=default;curved=1;" edge="1" parent="1" source="4aZlADbejFUpbv1NM3I3-10" target="4aZlADbejFUpbv1NM3I3-5">
          <mxGeometry width="50" height="50" relative="1" as="geometry">
            <mxPoint x="180" y="910" as="sourcePoint" />
            <mxPoint x="230" y="860" as="targetPoint" />
            <Array as="points">
              <mxPoint x="260" y="700" />
            </Array>
          </mxGeometry>
        </mxCell>
        <mxCell id="4aZlADbejFUpbv1NM3I3-14" value="" style="endArrow=classic;html=1;rounded=0;curved=1;" edge="1" parent="1" source="4aZlADbejFUpbv1NM3I3-5" target="4aZlADbejFUpbv1NM3I3-2">
          <mxGeometry width="50" height="50" relative="1" as="geometry">
            <mxPoint x="180" y="910" as="sourcePoint" />
            <mxPoint x="230" y="860" as="targetPoint" />
            <Array as="points">
              <mxPoint x="190" y="640" />
            </Array>
          </mxGeometry>
        </mxCell>
        <mxCell id="4aZlADbejFUpbv1NM3I3-15" value="" style="endArrow=classic;html=1;rounded=0;curved=1;" edge="1" parent="1" source="4aZlADbejFUpbv1NM3I3-8" target="4aZlADbejFUpbv1NM3I3-11">
          <mxGeometry width="50" height="50" relative="1" as="geometry">
            <mxPoint x="180" y="910" as="sourcePoint" />
            <mxPoint x="230" y="860" as="targetPoint" />
            <Array as="points">
              <mxPoint x="190" y="720" />
            </Array>
          </mxGeometry>
        </mxCell>
        <mxCell id="4aZlADbejFUpbv1NM3I3-16" value="" style="endArrow=classic;html=1;rounded=0;curved=1;" edge="1" parent="1" source="4aZlADbejFUpbv1NM3I3-11" target="4aZlADbejFUpbv1NM3I3-9">
          <mxGeometry width="50" height="50" relative="1" as="geometry">
            <mxPoint x="180" y="910" as="sourcePoint" />
            <mxPoint x="230" y="860" as="targetPoint" />
            <Array as="points">
              <mxPoint x="220" y="740" />
            </Array>
          </mxGeometry>
        </mxCell>
        <mxCell id="4aZlADbejFUpbv1NM3I3-17" value="" style="endArrow=classic;html=1;rounded=0;curved=1;" edge="1" parent="1" source="4aZlADbejFUpbv1NM3I3-3" target="4aZlADbejFUpbv1NM3I3-5">
          <mxGeometry width="50" height="50" relative="1" as="geometry">
            <mxPoint x="180" y="910" as="sourcePoint" />
            <mxPoint x="230" y="860" as="targetPoint" />
            <Array as="points">
              <mxPoint x="230" y="620" />
            </Array>
          </mxGeometry>
        </mxCell>
        <mxCell id="4aZlADbejFUpbv1NM3I3-18" value="" style="endArrow=classic;html=1;rounded=0;" edge="1" parent="1" source="4aZlADbejFUpbv1NM3I3-4" target="4aZlADbejFUpbv1NM3I3-7">
          <mxGeometry width="50" height="50" relative="1" as="geometry">
            <mxPoint x="180" y="910" as="sourcePoint" />
            <mxPoint x="230" y="860" as="targetPoint" />
          </mxGeometry>
        </mxCell>
        <mxCell id="4aZlADbejFUpbv1NM3I3-19" value="" style="endArrow=classic;html=1;rounded=0;" edge="1" parent="1" source="4aZlADbejFUpbv1NM3I3-1" target="4aZlADbejFUpbv1NM3I3-10">
          <mxGeometry width="50" height="50" relative="1" as="geometry">
            <mxPoint x="180" y="910" as="sourcePoint" />
            <mxPoint x="230" y="860" as="targetPoint" />
          </mxGeometry>
        </mxCell>
        <mxCell id="4aZlADbejFUpbv1NM3I3-20" value="" style="endArrow=classic;html=1;rounded=0;curved=1;" edge="1" parent="1" source="4aZlADbejFUpbv1NM3I3-10" target="4aZlADbejFUpbv1NM3I3-8">
          <mxGeometry width="50" height="50" relative="1" as="geometry">
            <mxPoint x="180" y="890" as="sourcePoint" />
            <mxPoint x="230" y="840" as="targetPoint" />
            <Array as="points">
              <mxPoint x="180" y="760" />
            </Array>
          </mxGeometry>
        </mxCell>
        <mxCell id="4aZlADbejFUpbv1NM3I3-21" value="" style="endArrow=classic;html=1;rounded=0;curved=1;" edge="1" parent="1" source="4aZlADbejFUpbv1NM3I3-2" target="4aZlADbejFUpbv1NM3I3-4">
          <mxGeometry width="50" height="50" relative="1" as="geometry">
            <mxPoint x="180" y="910" as="sourcePoint" />
            <mxPoint x="230" y="860" as="targetPoint" />
            <Array as="points">
              <mxPoint x="180" y="600" />
            </Array>
          </mxGeometry>
        </mxCell>
        <mxCell id="4aZlADbejFUpbv1NM3I3-22" value="" style="endArrow=classic;html=1;rounded=0;" edge="1" parent="1" source="4aZlADbejFUpbv1NM3I3-4" target="4aZlADbejFUpbv1NM3I3-3">
          <mxGeometry width="50" height="50" relative="1" as="geometry">
            <mxPoint x="180" y="910" as="sourcePoint" />
            <mxPoint x="230" y="860" as="targetPoint" />
          </mxGeometry>
        </mxCell>
        <mxCell id="4aZlADbejFUpbv1NM3I3-23" value="" style="endArrow=classic;html=1;rounded=0;" edge="1" parent="1" source="4aZlADbejFUpbv1NM3I3-9" target="4aZlADbejFUpbv1NM3I3-10">
          <mxGeometry width="50" height="50" relative="1" as="geometry">
            <mxPoint x="180" y="890" as="sourcePoint" />
            <mxPoint x="230" y="840" as="targetPoint" />
          </mxGeometry>
        </mxCell>
        <mxCell id="4aZlADbejFUpbv1NM3I3-33" value="" style="rounded=0;whiteSpace=wrap;html=1;strokeColor=none;" vertex="1" parent="1">
          <mxGeometry x="440" y="530" width="330" height="320" as="geometry" />
        </mxCell>
        <mxCell id="4aZlADbejFUpbv1NM3I3-34" value="" style="ellipse;whiteSpace=wrap;html=1;fillColor=#dae8fc;strokeColor=#6c8ebf;" vertex="1" parent="1">
          <mxGeometry x="452.5" y="702.5" width="55" height="55" as="geometry" />
        </mxCell>
        <mxCell id="4aZlADbejFUpbv1NM3I3-35" value="" style="ellipse;whiteSpace=wrap;html=1;fillColor=#dae8fc;strokeColor=#6c8ebf;" vertex="1" parent="1">
          <mxGeometry x="452.5" y="622.5" width="55" height="55" as="geometry" />
        </mxCell>
        <mxCell id="4aZlADbejFUpbv1NM3I3-36" value="" style="ellipse;whiteSpace=wrap;html=1;fillColor=#dae8fc;strokeColor=#6c8ebf;rotation=-13.5;" vertex="1" parent="1">
          <mxGeometry x="491" y="699" width="274" height="136.99" as="geometry" />
        </mxCell>
        <mxCell id="4aZlADbejFUpbv1NM3I3-37" value="" style="ellipse;whiteSpace=wrap;html=1;fillColor=#dae8fc;strokeColor=#6c8ebf;rotation=14.9;" vertex="1" parent="1">
          <mxGeometry x="483.05" y="546.0699999999999" width="276.01" height="134" as="geometry" />
        </mxCell>
        <mxCell id="4aZlADbejFUpbv1NM3I3-38" value="1" style="ellipse;whiteSpace=wrap;html=1;aspect=fixed;" vertex="1" parent="1">
          <mxGeometry x="460" y="630" width="40" height="40" as="geometry" />
        </mxCell>
        <mxCell id="4aZlADbejFUpbv1NM3I3-39" value="2" style="ellipse;whiteSpace=wrap;html=1;aspect=fixed;" vertex="1" parent="1">
          <mxGeometry x="500" y="570" width="40" height="40" as="geometry" />
        </mxCell>
        <mxCell id="4aZlADbejFUpbv1NM3I3-40" value="3" style="ellipse;whiteSpace=wrap;html=1;aspect=fixed;" vertex="1" parent="1">
          <mxGeometry x="580" y="550" width="40" height="40" as="geometry" />
        </mxCell>
        <mxCell id="4aZlADbejFUpbv1NM3I3-41" value="4" style="ellipse;whiteSpace=wrap;html=1;aspect=fixed;" vertex="1" parent="1">
          <mxGeometry x="660" y="570" width="40" height="40" as="geometry" />
        </mxCell>
        <mxCell id="4aZlADbejFUpbv1NM3I3-42" value="5" style="ellipse;whiteSpace=wrap;html=1;aspect=fixed;" vertex="1" parent="1">
          <mxGeometry x="700" y="630" width="40" height="40" as="geometry" />
        </mxCell>
        <mxCell id="4aZlADbejFUpbv1NM3I3-43" value="-1" style="ellipse;whiteSpace=wrap;html=1;aspect=fixed;" vertex="1" parent="1">
          <mxGeometry x="460" y="710" width="40" height="40" as="geometry" />
        </mxCell>
        <mxCell id="4aZlADbejFUpbv1NM3I3-44" value="-2" style="ellipse;whiteSpace=wrap;html=1;aspect=fixed;" vertex="1" parent="1">
          <mxGeometry x="500" y="770" width="40" height="40" as="geometry" />
        </mxCell>
        <mxCell id="4aZlADbejFUpbv1NM3I3-45" value="-3" style="ellipse;whiteSpace=wrap;html=1;aspect=fixed;" vertex="1" parent="1">
          <mxGeometry x="580" y="790" width="40" height="40" as="geometry" />
        </mxCell>
        <mxCell id="4aZlADbejFUpbv1NM3I3-46" value="-4" style="ellipse;whiteSpace=wrap;html=1;aspect=fixed;" vertex="1" parent="1">
          <mxGeometry x="660" y="770" width="40" height="40" as="geometry" />
        </mxCell>
        <mxCell id="4aZlADbejFUpbv1NM3I3-47" value="-5" style="ellipse;whiteSpace=wrap;html=1;aspect=fixed;" vertex="1" parent="1">
          <mxGeometry x="700" y="710" width="40" height="40" as="geometry" />
        </mxCell>
        <mxCell id="4aZlADbejFUpbv1NM3I3-48" value="" style="endArrow=classic;html=1;rounded=0;curved=1;" edge="1" parent="1" source="4aZlADbejFUpbv1NM3I3-47" target="4aZlADbejFUpbv1NM3I3-41">
          <mxGeometry width="50" height="50" relative="1" as="geometry">
            <mxPoint x="600" y="920" as="sourcePoint" />
            <mxPoint x="790" y="600" as="targetPoint" />
            <Array as="points">
              <mxPoint x="680" y="670" />
            </Array>
          </mxGeometry>
        </mxCell>
        <mxCell id="4aZlADbejFUpbv1NM3I3-49" value="" style="endArrow=classic;html=1;rounded=0;strokeColor=default;curved=1;" edge="1" parent="1" source="4aZlADbejFUpbv1NM3I3-46" target="4aZlADbejFUpbv1NM3I3-42">
          <mxGeometry width="50" height="50" relative="1" as="geometry">
            <mxPoint x="600" y="920" as="sourcePoint" />
            <mxPoint x="650" y="870" as="targetPoint" />
            <Array as="points">
              <mxPoint x="680" y="710" />
            </Array>
          </mxGeometry>
        </mxCell>
        <mxCell id="4aZlADbejFUpbv1NM3I3-50" value="" style="endArrow=classic;html=1;rounded=0;curved=1;" edge="1" parent="1" source="4aZlADbejFUpbv1NM3I3-42" target="4aZlADbejFUpbv1NM3I3-39">
          <mxGeometry width="50" height="50" relative="1" as="geometry">
            <mxPoint x="600" y="920" as="sourcePoint" />
            <mxPoint x="650" y="870" as="targetPoint" />
            <Array as="points">
              <mxPoint x="610" y="650" />
            </Array>
          </mxGeometry>
        </mxCell>
        <mxCell id="4aZlADbejFUpbv1NM3I3-51" value="" style="endArrow=classic;html=1;rounded=0;curved=1;" edge="1" parent="1" source="4aZlADbejFUpbv1NM3I3-44" target="4aZlADbejFUpbv1NM3I3-47">
          <mxGeometry width="50" height="50" relative="1" as="geometry">
            <mxPoint x="600" y="920" as="sourcePoint" />
            <mxPoint x="650" y="870" as="targetPoint" />
            <Array as="points">
              <mxPoint x="610" y="730" />
            </Array>
          </mxGeometry>
        </mxCell>
        <mxCell id="4aZlADbejFUpbv1NM3I3-52" value="" style="endArrow=classic;html=1;rounded=0;curved=1;" edge="1" parent="1" source="4aZlADbejFUpbv1NM3I3-47" target="4aZlADbejFUpbv1NM3I3-45">
          <mxGeometry width="50" height="50" relative="1" as="geometry">
            <mxPoint x="600" y="920" as="sourcePoint" />
            <mxPoint x="650" y="870" as="targetPoint" />
            <Array as="points">
              <mxPoint x="640" y="750" />
            </Array>
          </mxGeometry>
        </mxCell>
        <mxCell id="4aZlADbejFUpbv1NM3I3-53" value="" style="endArrow=classic;html=1;rounded=0;curved=1;" edge="1" parent="1" source="4aZlADbejFUpbv1NM3I3-40" target="4aZlADbejFUpbv1NM3I3-42">
          <mxGeometry width="50" height="50" relative="1" as="geometry">
            <mxPoint x="600" y="920" as="sourcePoint" />
            <mxPoint x="650" y="870" as="targetPoint" />
            <Array as="points">
              <mxPoint x="650" y="630" />
            </Array>
          </mxGeometry>
        </mxCell>
        <mxCell id="4aZlADbejFUpbv1NM3I3-54" value="" style="endArrow=classic;html=1;rounded=0;" edge="1" parent="1" source="4aZlADbejFUpbv1NM3I3-41" target="4aZlADbejFUpbv1NM3I3-43">
          <mxGeometry width="50" height="50" relative="1" as="geometry">
            <mxPoint x="600" y="920" as="sourcePoint" />
            <mxPoint x="650" y="870" as="targetPoint" />
          </mxGeometry>
        </mxCell>
        <mxCell id="4aZlADbejFUpbv1NM3I3-55" value="" style="endArrow=classic;html=1;rounded=0;" edge="1" parent="1" source="4aZlADbejFUpbv1NM3I3-38" target="4aZlADbejFUpbv1NM3I3-46">
          <mxGeometry width="50" height="50" relative="1" as="geometry">
            <mxPoint x="600" y="920" as="sourcePoint" />
            <mxPoint x="650" y="870" as="targetPoint" />
          </mxGeometry>
        </mxCell>
        <mxCell id="4aZlADbejFUpbv1NM3I3-56" value="" style="endArrow=classic;html=1;rounded=0;" edge="1" parent="1" source="4aZlADbejFUpbv1NM3I3-46" target="4aZlADbejFUpbv1NM3I3-44">
          <mxGeometry width="50" height="50" relative="1" as="geometry">
            <mxPoint x="600" y="900" as="sourcePoint" />
            <mxPoint x="650" y="850" as="targetPoint" />
          </mxGeometry>
        </mxCell>
        <mxCell id="4aZlADbejFUpbv1NM3I3-57" value="" style="endArrow=classic;html=1;rounded=0;curved=1;" edge="1" parent="1" source="4aZlADbejFUpbv1NM3I3-39" target="4aZlADbejFUpbv1NM3I3-41">
          <mxGeometry width="50" height="50" relative="1" as="geometry">
            <mxPoint x="600" y="920" as="sourcePoint" />
            <mxPoint x="650" y="870" as="targetPoint" />
            <Array as="points">
              <mxPoint x="600" y="610" />
            </Array>
          </mxGeometry>
        </mxCell>
        <mxCell id="4aZlADbejFUpbv1NM3I3-58" value="" style="endArrow=classic;html=1;rounded=0;" edge="1" parent="1" source="4aZlADbejFUpbv1NM3I3-41" target="4aZlADbejFUpbv1NM3I3-40">
          <mxGeometry width="50" height="50" relative="1" as="geometry">
            <mxPoint x="600" y="920" as="sourcePoint" />
            <mxPoint x="650" y="870" as="targetPoint" />
          </mxGeometry>
        </mxCell>
        <mxCell id="4aZlADbejFUpbv1NM3I3-59" value="" style="endArrow=classic;html=1;rounded=0;" edge="1" parent="1" source="4aZlADbejFUpbv1NM3I3-45" target="4aZlADbejFUpbv1NM3I3-46">
          <mxGeometry width="50" height="50" relative="1" as="geometry">
            <mxPoint x="600" y="900" as="sourcePoint" />
            <mxPoint x="650" y="850" as="targetPoint" />
          </mxGeometry>
        </mxCell>
        <mxCell id="4aZlADbejFUpbv1NM3I3-60" value="" style="rounded=0;whiteSpace=wrap;html=1;strokeColor=none;" vertex="1" parent="1">
          <mxGeometry x="980" y="80" width="330" height="320" as="geometry" />
        </mxCell>
      </root>
    </mxGraphModel>
  </diagram>
</mxfile>
